<svg width="28" height="29" viewBox="0 0 28 29" fill="none" xmlns="http://www.w3.org/2000/svg">
<path d="M13.163 4.52883C13.4319 3.98407 13.5664 3.71168 13.7489 3.62466C13.9077 3.54894 14.0922 3.54894 14.251 3.62466C14.4335 3.71168 14.568 3.98407 14.8369 4.52883L17.388 9.69712C17.4674 9.85795 17.5071 9.93836 17.5651 10.0008C17.6164 10.0561 17.678 10.1009 17.7465 10.1327C17.8237 10.1686 17.9125 10.1816 18.0899 10.2075L23.7964 11.0416C24.3973 11.1294 24.6978 11.1734 24.8368 11.3201C24.9578 11.4478 25.0147 11.6233 24.9917 11.7977C24.9652 11.9981 24.7477 12.21 24.3126 12.6337L20.1849 16.6541C20.0563 16.7794 19.9919 16.8421 19.9504 16.9167C19.9137 16.9827 19.8901 17.0552 19.881 17.1302C19.8707 17.2149 19.8859 17.3035 19.9163 17.4805L20.8902 23.1591C20.9929 23.758 21.0443 24.0575 20.9478 24.2352C20.8638 24.3898 20.7145 24.4983 20.5415 24.5303C20.3426 24.5672 20.0737 24.4258 19.5359 24.1429L14.4344 21.4601C14.2754 21.3765 14.1959 21.3347 14.1122 21.3183C14.0381 21.3038 13.9618 21.3038 13.8877 21.3183C13.8039 21.3347 13.7245 21.3765 13.5655 21.4601L8.464 24.1429C7.92615 24.4258 7.65723 24.5672 7.45839 24.5303C7.28538 24.4983 7.13609 24.3898 7.05211 24.2352C6.95559 24.0575 7.00695 23.758 7.10967 23.1591L8.08362 17.4805C8.11398 17.3035 8.12916 17.2149 8.11889 17.1302C8.1098 17.0552 8.08622 16.9827 8.04946 16.9167C8.00794 16.8421 7.94361 16.7794 7.81493 16.6541L3.68724 12.6337C3.25219 12.21 3.03467 11.9981 3.0082 11.7977C2.98517 11.6233 3.04206 11.4478 3.16304 11.3201C3.30209 11.1734 3.60255 11.1294 4.20347 11.0416L9.90995 10.2075C10.0874 10.1816 10.1761 10.1686 10.2534 10.1327C10.3218 10.1009 10.3834 10.0561 10.4348 10.0008C10.4928 9.93836 10.5325 9.85795 10.6119 9.69712L13.163 4.52883Z" fill="#FFC41B"/>
</svg>
